<svg xmlns="http://www.w3.org/2000/svg" viewBox="0 0 64 64">
<defs>
<style>.cls-1{fill:#A52A2A;}.cls-2{fill:#A52A2A;}.cls-3{fill:#A52A2A;}.cls-4{fill:#281111;}</style></defs><title>deer</title><g id="deer"><path class="cls-1" d="M24,20H16A13,13,0,0,1,3,7,2,2,0,0,1,7,7a9,9,0,0,0,9,9h8a2,2,0,0,1,0,4Z"/><path class="cls-1" d="M24,20H16A13,13,0,0,1,3,7,2,2,0,0,1,7,7a9,9,0,0,0,9,9h8a2,2,0,0,1,0,4Z"/><path class="cls-1" d="M24,20A13,13,0,0,1,11,7a2,2,0,0,1,4,0,9,9,0,0,0,9,9,2,2,0,0,1,0,4Z"/><path class="cls-1" d="M24,20A13,13,0,0,1,11,7a2,2,0,0,1,4,0,9,9,0,0,0,9,9,2,2,0,0,1,0,4Z"/><path class="cls-1" d="M27,23a2,2,0,0,1-2-2,1,1,0,0,0-1-1,2,2,0,0,1,0-4,5,5,0,0,1,5,5A2,2,0,0,1,27,23Z"/><path class="cls-1" d="M48,20H40a2,2,0,0,1,0-4h8a9,9,0,0,0,9-9,2,2,0,0,1,4,0A13,13,0,0,1,48,20Z"/><path class="cls-1" d="M48,20H40a2,2,0,0,1,0-4h8a9,9,0,0,0,9-9,2,2,0,0,1,4,0A13,13,0,0,1,48,20Z"/><path class="cls-1" d="M40,20a2,2,0,0,1,0-4,9,9,0,0,0,9-9,2,2,0,0,1,4,0A13,13,0,0,1,40,20Z"/><path class="cls-1" d="M40,20a2,2,0,0,1,0-4,9,9,0,0,0,9-9,2,2,0,0,1,4,0A13,13,0,0,1,40,20Z"/><path class="cls-1" d="M37,23a2,2,0,0,1-2-2,5,5,0,0,1,5-5,2,2,0,0,1,0,4,1,1,0,0,0-1,1A2,2,0,0,1,37,23Z"/><path class="cls-2" d="M57,21A10,10,0,0,1,47,31H46V28a7,7,0,0,0-1.2-3.93l.13-.14A10,10,0,0,1,52,21Z"/><path class="cls-3" d="M46,28v8.1a7,7,0,0,1-2,4.95h0a14.53,14.53,0,0,0-3.89,7l-1.17,5.06A5,5,0,0,1,34,57H30a5,5,0,0,1-4.87-3.88l-1.17-5.06a14.53,14.53,0,0,0-3.89-7h0A7,7,0,0,1,18,36.1V28a7,7,0,0,1,7-7H39a7,7,0,0,1,7,7Z"/><circle class="cls-4" cx="38.5" cy="35.5" r="1.5"/><circle class="cls-4" cx="25.5" cy="35.5" r="1.5"/><path class="cls-1" d="M35,54.49a1.55,1.55,0,0,1-.11.56,1.49,1.49,0,0,1-.66.76L32,57l-2.23-1.19a1.49,1.49,0,0,1-.66-.76,1.55,1.55,0,0,1-.11-.56A1.44,1.44,0,0,1,30.39,53h3.22A1.44,1.44,0,0,1,35,54.49Z"/><path class="cls-2" d="M19.2,24.07A7,7,0,0,0,18,28v3H17A10,10,0,0,1,7,21h5a10,10,0,0,1,7.07,2.93Z"/><path class="cls-4" d="M47,32H46a1,1,0,0,1-1-1V28a6,6,0,0,0-1-3.37,1,1,0,0,1,0-1.18,1.94,1.94,0,0,1,.2-.21A10.9,10.9,0,0,1,52,20h5a1,1,0,0,1,1,1A11,11,0,0,1,47,32Zm0-2a9,9,0,0,0,9-8H52a8.89,8.89,0,0,0-5.93,2.24A8,8,0,0,1,47,28Z"/><path class="cls-4" d="M34,58H30a6,6,0,0,1-5.84-4.66L23,48.29a13.55,13.55,0,0,0-3.63-6.53A8.05,8.05,0,0,1,17,36.1V28a7.92,7.92,0,0,1,1.37-4.49A8,8,0,0,1,25,20H39a8,8,0,0,1,6.63,3.51A7.92,7.92,0,0,1,47,28v8.1a8.05,8.05,0,0,1-2.34,5.66,13.65,13.65,0,0,0-3.08,4.71,1,1,0,1,1-1.86-.72,15.77,15.77,0,0,1,3.52-5.41A6,6,0,0,0,45,36.1V28a6,6,0,0,0-6-6H25a6,6,0,0,0-6,6v8.1a6,6,0,0,0,1.76,4.24,15.56,15.56,0,0,1,4.15,7.49l1.17,5.06A4,4,0,0,0,30,56h4a4,4,0,0,0,3.68-2.43,1,1,0,1,1,1.84.78A6,6,0,0,1,34,58Z"/><path class="cls-4" d="M39.59,51.09l-.23,0a1,1,0,0,1-.74-1.2l0-.13a1,1,0,1,1,1.94.46l0,.13A1,1,0,0,1,39.59,51.09Z"/><path class="cls-4" d="M32,58a1,1,0,0,1-.47-.12L29.3,56.69a2.51,2.51,0,0,1-1.13-1.28,2.67,2.67,0,0,1-.17-.92A2.44,2.44,0,0,1,30.39,52h3.22A2.44,2.44,0,0,1,36,54.49a2.47,2.47,0,0,1-.18.92,2.43,2.43,0,0,1-1.1,1.27l-2.25,1.2A1,1,0,0,1,32,58Zm-1.61-4a.45.45,0,0,0-.39.49.51.51,0,0,0,0,.2.53.53,0,0,0,.22.25l1.74.93,1.76-.94A.48.48,0,0,0,34,54.7a.49.49,0,0,0-.34-.7Z"/><path class="cls-4" d="M18,32H17a10.92,10.92,0,0,1-7.78-3.22A12.3,12.3,0,0,1,8,27.38,1,1,0,0,1,8.28,26a1,1,0,0,1,1.39.23A9.06,9.06,0,0,0,17,30V28a8,8,0,0,1,.93-3.76A8.93,8.93,0,0,0,12,22H8.05c0,.32.09.63.16.94a1,1,0,0,1-2,.42A11,11,0,0,1,6,21a1,1,0,0,1,1-1h5a10.92,10.92,0,0,1,7.78,3.22l.21.23a1,1,0,0,1,0,1.18A6,6,0,0,0,19,28v3A1,1,0,0,1,18,32Z"/></g></svg>